<svg width="708" height="683" viewBox="0 0 708 683" fill="none" xmlns="http://www.w3.org/2000/svg">
<g clip-path="url(#clip0_935_3403)">
<rect width="708" height="683" transform="matrix(-1 0 0 1 708 0)" fill="#E6ECE4"/>
<path fill-rule="evenodd" clip-rule="evenodd" d="M588.93 6.41526L708 75.1224V603.685L586.463 532.51V673.256L306.496 512.652V341.808L586.463 502.412V334.654L306.496 174.05V0L588.93 163.071V6.41526Z" fill="#0D8472"/>
<path fill-rule="evenodd" clip-rule="evenodd" d="M276.143 186.384L286.755 192.553V351.677L10.6115 511.047L9.15527e-05 504.881V345.756L276.143 186.384Z" fill="#0D8472"/>
<path d="M267.876 303.57C267.876 304.187 268.37 304.681 268.988 304.681C269.482 304.681 269.976 304.187 269.976 303.57V223.637C269.976 223.019 269.482 222.526 268.988 222.526C268.741 222.526 268.494 222.526 268.37 222.649L26.6543 363.763C26.2838 363.886 26.1604 364.257 26.1604 364.627V478.728C26.1604 479.345 26.6543 479.839 27.2718 479.839C27.5188 479.839 27.6423 479.716 27.8893 479.592L61.8206 458.993C62.3145 458.623 62.438 458.005 62.191 457.514C61.8205 457.02 61.2031 456.773 60.5878 457.143L28.2597 476.757V365.246L267.878 225.489V303.57H267.876ZM75.7618 446.288C75.2678 446.535 75.1444 447.276 75.3913 447.767C75.6383 448.261 76.3793 448.508 76.871 448.138L204.331 376.717C204.825 376.346 205.072 375.729 204.825 375.237C204.455 374.744 203.837 374.497 203.346 374.867L75.7618 446.288Z" fill="black"/>
<path fill-rule="evenodd" clip-rule="evenodd" d="M286.755 192.552L562.896 351.924V511.047L286.755 351.677V192.552Z" fill="black"/>
<path d="M287.864 194.402L561.784 352.539V509.197L287.864 351.06V194.402ZM563.513 350.937L287.372 191.565C287.249 191.441 287.002 191.441 286.755 191.441C286.137 191.441 285.643 191.935 285.643 192.552V351.677C285.643 352.048 285.89 352.418 286.261 352.542L562.278 511.913C562.525 512.037 562.649 512.16 562.896 512.16C563.513 512.16 564.007 511.666 564.007 511.049V351.924C564.007 351.554 563.76 351.184 563.513 350.937Z" fill="black"/>
<path d="M447.776 455.044C447.282 454.798 446.664 454.921 446.296 455.538C446.049 456.032 446.173 456.649 446.79 457.018L561.787 523.381V680.039L287.866 521.902V472.191C287.866 471.574 287.372 471.204 286.755 471.204C286.137 471.204 285.643 471.574 285.643 472.191V522.519C285.643 522.89 285.89 523.26 286.261 523.507L562.278 682.755C562.402 682.879 562.649 683.002 562.896 683.002C563.143 683.002 563.39 682.879 563.513 682.755L569.807 679.177C570.301 678.93 570.424 678.19 570.177 677.698C569.807 677.204 569.189 677.081 568.698 677.328L564.009 680.041V523.384L569.809 520.052C570.303 519.805 570.427 519.065 570.18 518.573C569.809 518.079 569.192 517.956 568.7 518.203L562.9 521.534L447.78 455.047L447.776 455.044ZM569.805 337.491C570.299 337.121 570.422 336.503 570.175 336.012C569.805 335.394 569.187 335.271 568.695 335.518L564.007 338.232V181.697L569.807 178.366C570.301 177.996 570.424 177.378 570.177 176.887C569.807 176.27 569.189 176.146 568.698 176.393L562.898 179.724L288.975 21.5869L293.664 18.8731C294.158 18.6262 294.281 18.0089 294.034 17.3938C293.664 16.9 293.046 16.7766 292.554 17.0235L286.261 20.6015C285.89 20.8484 285.643 21.2187 285.643 21.5891V180.714C285.643 181.084 285.89 181.455 286.261 181.702L562.278 341.073C562.525 341.197 562.649 341.197 562.896 341.197C563.143 341.197 563.39 341.197 563.513 341.073L569.807 337.495L569.805 337.491ZM581.528 355.994C582.021 355.747 582.268 355.006 581.898 354.514C581.651 354.021 580.91 353.774 580.418 354.144L574.248 357.722C573.878 357.846 573.631 358.216 573.631 358.71V517.835C573.631 518.205 573.754 518.575 574.125 518.822L684.927 582.719C685.421 582.966 686.162 582.843 686.407 582.349C686.777 581.855 686.53 581.114 686.036 580.87L575.728 517.22V360.562L684.927 423.594C685.421 423.841 686.162 423.718 686.407 423.224C686.777 422.73 686.53 421.989 686.036 421.745L576.837 358.712L581.525 355.998L581.528 355.994ZM581.528 14.1862C582.021 13.9393 582.268 13.1986 581.898 12.707C581.651 12.2131 580.91 12.0897 580.418 12.3366L574.248 15.9146C573.878 16.1615 573.631 16.5319 573.631 16.9022V176.027C573.631 176.397 573.754 176.768 574.125 177.015L684.927 240.912C685.421 241.282 686.162 241.035 686.407 240.541C686.777 240.047 686.53 239.43 686.036 239.062L575.728 175.412V18.7496L684.927 81.7823C685.421 82.1527 686.162 81.9058 686.407 81.4119C686.777 80.9181 686.53 80.3008 686.036 79.9327L576.839 16.9L581.528 14.1862ZM581.528 185.152C582.021 184.781 582.268 184.164 581.898 183.672C581.651 183.055 580.91 182.932 580.418 183.179L574.248 186.88C573.878 187.004 573.631 187.374 573.631 187.868V346.993C573.631 347.363 573.754 347.733 574.125 347.857L684.927 411.877C685.421 412.124 686.162 412 686.407 411.507C686.777 410.889 686.53 410.272 686.036 410.027L575.728 346.377V189.72L684.927 252.752C685.421 252.999 686.162 252.876 686.407 252.382C686.777 251.765 686.53 251.147 686.036 250.903L576.837 187.87L581.525 185.156L581.528 185.152ZM287.864 23.56L561.784 181.697V338.232L287.864 180.094V23.56Z" fill="black"/>
<mask id="mask0_935_3403" style="mask-type:alpha" maskUnits="userSpaceOnUse" x="220" y="263" width="279" height="250">
<path d="M499 345V430.5L360.5 512.5L220.5 430.5V345L360.5 263.5L499 345Z" fill="#D9D9D9"/>
</mask>
<g mask="url(#mask0_935_3403)">
<path fill-rule="evenodd" clip-rule="evenodd" d="M361.285 503.523L226.546 425.812V345.509L361.285 267.796L495.901 345.509V425.812L361.285 503.523Z" fill="#0D8472"/>
<path fill-rule="evenodd" clip-rule="evenodd" d="M306.996 391.888V472.191L280.838 457.143V376.84L335.127 345.509L280.838 314.178L306.996 299.129L361.285 330.461L415.454 299.129L441.612 314.178L387.443 345.509L441.612 376.84L415.454 391.888V472.191L441.612 457.143V376.84L415.454 391.888L361.285 360.681L306.996 391.888Z" fill="white"/>
<path d="M361.903 504.387L390.775 487.734C391.269 487.487 391.393 486.87 391.146 486.255C390.775 485.761 390.158 485.637 389.666 485.884L362.397 501.673V423.839L465.796 364.138C466.29 363.891 466.537 363.15 466.167 362.658C465.92 362.165 465.302 362.041 464.687 362.288L361.288 421.99L340.682 410.147C340.188 409.9 339.571 410.023 339.203 410.517C338.956 411.011 339.079 411.752 339.573 411.996L360.178 423.839V501.673L227.659 425.195V378.322C227.659 377.704 227.165 377.211 226.548 377.211C226.054 377.211 225.56 377.704 225.56 378.322V425.812C225.56 426.183 225.684 426.553 226.054 426.8L360.67 504.389C360.794 504.513 361.041 504.636 361.288 504.636C361.535 504.636 361.658 504.513 361.905 504.389L361.903 504.387ZM323.283 402.62C323.777 402.867 324.395 402.744 324.763 402.126C325.01 401.633 324.886 401.015 324.269 400.647L228.766 345.509L261.712 326.512C262.206 326.142 262.453 325.525 262.082 325.033C261.836 324.539 261.218 324.292 260.603 324.663L226.177 344.521C225.807 344.645 225.56 345.139 225.56 345.509V359.572C225.56 360.189 225.93 360.683 226.548 360.683C227.165 360.683 227.659 360.189 227.659 359.572V347.361L323.285 402.623L323.283 402.62ZM274.05 316.892C273.556 317.139 273.309 317.879 273.68 318.371C273.927 318.865 274.544 319.112 275.159 318.741L361.283 269.031L493.802 345.509L481.217 352.786C480.723 353.033 480.6 353.651 480.847 354.266C481.217 354.759 481.835 354.883 482.326 354.636L494.788 347.359V425.193L401.259 479.222C400.765 479.469 400.518 480.21 400.889 480.701C401.135 481.195 401.876 481.319 402.368 481.072L496.389 426.798C496.759 426.551 497.006 426.18 497.006 425.81V345.507C497.006 345.137 496.759 344.766 496.389 344.519L361.773 266.806C361.526 266.683 361.032 266.683 360.661 266.806L274.043 316.887L274.05 316.892Z" fill="black"/>
</g>
<path d="M285.643 305.049C285.643 305.666 286.137 306.16 286.755 306.16C287.372 306.16 287.866 305.666 287.866 305.049V192.552C287.866 191.935 287.372 191.441 286.755 191.441C286.508 191.441 286.261 191.565 286.137 191.688L246.53 214.508C246.036 214.755 245.912 215.495 246.159 215.987C246.406 216.481 247.147 216.604 247.639 216.357L285.643 194.4V305.047V305.049ZM4.81396 347.359C4.32001 346.988 3.70258 347.235 3.33429 347.729C3.08731 348.223 3.21078 348.84 3.82825 349.208L9.50443 352.539V464.297C9.50443 464.791 9.99838 465.285 10.6158 465.285C11.2333 465.285 11.7273 464.791 11.7273 464.297V352.539L234.811 223.76C235.305 223.513 235.429 222.773 235.182 222.281C234.935 221.787 234.194 221.54 233.702 221.911L10.6181 350.69L4.81839 347.359H4.81396ZM11.7229 480.456C11.7229 479.839 11.2289 479.345 10.6115 479.345C9.99399 479.345 9.50003 479.839 9.50003 480.456V511.047C9.50003 511.664 9.99399 512.158 10.6115 512.158C10.8584 512.158 11.1054 512.035 11.2289 511.911L217.163 393.123C217.657 392.753 217.781 392.135 217.534 391.644C217.287 391.026 216.546 390.903 216.054 391.15L11.7229 509.197V480.456Z" fill="black"/>
<path d="M253.562 481.04C255.397 480.888 256.845 481.197 257.724 481.705C258.156 481.955 258.414 482.231 258.547 482.486C258.672 482.726 258.715 483.003 258.631 483.344L247.719 527.512H247.717L247.529 528.272C247.352 528.992 246.859 529.434 246.092 529.582C245.279 529.739 244.133 529.552 242.879 528.827L228.215 520.344L227.714 520.055L227.214 520.344L156.286 561.37L118.997 539.802L188.928 499.352L190.425 498.487L188.928 497.622L174.264 489.138C173.622 488.767 173.309 488.461 173.187 488.27C173.171 488.246 173.162 488.226 173.154 488.211C173.216 488.147 173.385 488.01 173.781 487.863C174.262 487.685 174.959 487.537 175.886 487.461L253.562 481.04H253.562Z" fill="#2BD6B5" stroke="black" stroke-width="2"/>
</g>
<defs>
<clipPath id="clip0_935_3403">
<rect width="708" height="683" fill="white" transform="matrix(-1 0 0 1 708 0)"/>
</clipPath>
</defs>
</svg>
