<svg width="66" height="78" viewBox="0 0 66 78" fill="none" xmlns="http://www.w3.org/2000/svg">
<path d="M6.3446 53.1105C6.2902 53.0355 6.23612 52.9639 6.18237 52.8955C2.29132 47.4116 0 40.6855 0 33.4174C0 14.9615 14.7746 0 33 0C51.2254 0 66 14.9615 66 33.4174C66 40.7357 63.6194 47.0969 59.6953 52.7149C59.5932 52.8349 59.49 52.9666 59.3855 53.1105C56.2502 57.4305 46.477 65.4646 43.486 67.8918C40.495 70.319 36.7196 72.7843 32.8657 78C29.2039 72.7177 22.1826 67.8725 22.1826 67.8725C15.1106 61.8657 9.47994 57.4305 6.3446 53.1105Z" fill="#004B3E"/>
<rect x="10" y="10" width="46" height="46" rx="23" stroke="#656772" stroke-opacity="0.08" stroke-width="2"/>
<rect x="10" y="10" width="46" height="46" rx="23" fill="#004B3E"/>
<path d="M52.6386 35.1553L45.7637 22.659C45.2032 21.6385 44.1279 21 42.9554 21H26.689C26.9406 21.2736 27.158 21.5758 27.341 21.9064L37.3274 40.0637C37.8879 41.0842 38.9632 41.7227 40.1357 41.7227H48.7436C52.1296 41.7227 54.2744 38.1083 52.6444 35.1496L52.6386 35.1553Z" fill="#2BD6B5"/>
<path d="M23.1601 21.0059C21.9933 21.0059 20.918 21.6387 20.3518 22.6648L13.7571 34.648C12.1271 37.6068 14.2776 41.2211 17.6579 41.2211H28.0332C29.2 41.2211 30.2752 40.5883 30.8415 39.5622L33.0549 35.5431L25.9684 22.6648C25.4079 21.6444 24.3326 21.0059 23.1601 21.0059Z" fill="white"/>
</svg>
