<svg width="153" height="97" viewBox="0 0 153 97" fill="none" xmlns="http://www.w3.org/2000/svg">
<path d="M134.255 42.1969L113.828 4.94535C112.163 1.90337 108.968 0 105.484 0H57.1519C57.8996 0.815728 58.5454 1.71643 59.0892 2.7021L88.7613 56.8291C90.4268 59.871 93.6217 61.7744 97.1055 61.7744H122.682C132.743 61.7744 139.116 51 134.272 42.1799L134.255 42.1969Z" fill="#2BD6B5"/>
<path d="M46.6664 0.0172729C43.1996 0.0172729 40.0046 1.90364 38.3222 4.96262L18.7277 40.6847C13.8843 49.5048 20.2742 60.2792 30.3179 60.2792H61.1456C64.6124 60.2792 67.8074 58.3928 69.4898 55.3338L76.0666 43.3528L55.0106 4.96262C53.3452 1.92064 50.1502 0.0172729 46.6664 0.0172729Z" fill="white"/>
<path d="M34.4815 96.4431H28.1766V85.5158C28.1766 84.2922 27.8027 83.3065 27.072 82.5248C26.3412 81.743 25.4065 81.3522 24.2849 81.3522C23.1633 81.3522 22.2456 81.743 21.4978 82.5248C20.7671 83.3065 20.3932 84.3092 20.3932 85.5158V96.4431H14.0883V85.5158C14.0883 84.2922 13.7144 83.3065 12.9837 82.5248C12.2529 81.743 11.3182 81.3522 10.1966 81.3522C9.07498 81.3522 8.15728 81.743 7.40953 82.5248C6.67877 83.3065 6.3049 84.3092 6.3049 85.5158V96.4431H0V75.5911L5.60813 78.2422C6.38987 77.4095 7.32456 76.7467 8.4122 76.2539C9.49983 75.761 10.6724 75.5231 11.947 75.5231C13.2216 75.5231 14.5472 75.795 15.6858 76.3388C16.8244 76.8827 17.7931 77.6304 18.5578 78.5991C19.4925 77.6474 20.5971 76.8827 21.8887 76.3388C23.1633 75.795 24.5568 75.5231 26.0353 75.5231C27.5138 75.5231 28.2956 75.744 29.3322 76.1689C30.3689 76.5938 31.2696 77.1716 32.0173 77.9193C32.7651 78.6501 33.3599 79.5338 33.8017 80.5364C34.2436 81.5391 34.4645 82.6437 34.4645 83.7994V96.4431H34.4815Z" fill="white"/>
<path d="M60.2449 86.0933C60.2449 87.5888 59.956 88.9993 59.3952 90.2739C58.8174 91.5485 58.0356 92.6701 57.05 93.6218C56.0473 94.5735 54.8747 95.3212 53.5322 95.865C52.1896 96.4089 50.7281 96.6808 49.1816 96.6808C47.6351 96.6808 46.1736 96.4089 44.831 95.865C43.4885 95.3212 42.3159 94.5735 41.3132 93.6218C40.3106 92.6701 39.5288 91.5655 38.968 90.2739C38.3902 88.9993 38.1183 87.5888 38.1183 86.0933C38.1183 84.5978 38.4072 83.1873 38.968 81.9127C39.5458 80.6381 40.3275 79.5165 41.3132 78.5648C42.3159 77.6131 43.4885 76.8654 44.831 76.3215C46.1736 75.7777 47.6351 75.5058 49.1816 75.5058C50.7281 75.5058 52.1896 75.7777 53.5322 76.3215C54.8747 76.8654 56.0473 77.6131 57.05 78.5648C58.0526 79.5165 58.8344 80.6211 59.3952 81.9127C59.973 83.1873 60.2449 84.5978 60.2449 86.0933ZM53.7021 86.0933C53.7021 84.6998 53.2772 83.5611 52.4105 82.6774C51.5608 81.7937 50.4732 81.3519 49.1476 81.3519C47.8221 81.3519 46.7344 81.7937 45.8847 82.6774C45.035 83.5611 44.5931 84.6998 44.5931 86.0933C44.5931 87.4868 45.018 88.6424 45.8847 89.5091C46.7344 90.3929 47.8221 90.8347 49.1476 90.8347C50.4732 90.8347 51.5608 90.3929 52.4105 89.5091C53.2602 88.6254 53.7021 87.4868 53.7021 86.0933Z" fill="white"/>
<path d="M84.4789 96.4429H78.174V85.5155C78.174 84.2919 77.8001 83.3062 77.0694 82.5245C76.3386 81.7428 75.4039 81.3519 74.2823 81.3519C73.1607 81.3519 72.243 81.7428 71.4952 82.5245C70.7645 83.3062 70.3906 84.3089 70.3906 85.5155V96.4429H64.0857V75.5908L69.6938 78.2419C70.4756 77.4092 71.4103 76.7464 72.4979 76.2536C73.5855 75.7607 74.7581 75.5228 76.0327 75.5228C77.3073 75.5228 78.3099 75.7438 79.3466 76.1686C80.3833 76.5935 81.284 77.1713 82.0317 77.919C82.7795 78.6498 83.3743 79.5335 83.8161 80.5362C84.258 81.5388 84.4789 82.6435 84.4789 83.7991V96.4429Z" fill="white"/>
<path d="M100.759 82.5585C100.471 82.2016 100.114 81.9127 99.6718 81.6918C99.23 81.4708 98.7541 81.3689 98.2273 81.3689C97.2756 81.3689 96.4599 81.6918 95.8141 82.3376C95.1683 82.9833 94.8454 83.8331 94.8454 84.8697V96.4598H88.5405V75.6078L94.1826 78.2589C94.7775 77.4262 95.5592 76.7634 96.4939 76.2706C97.4456 75.7777 98.4992 75.5398 99.6548 75.5398C100.81 75.5398 102.119 75.8457 103.173 76.4745C104.226 77.1033 105.042 77.919 105.603 78.9557L100.742 82.5755L100.759 82.5585Z" fill="white"/>
<path d="M128.035 86.0933C128.035 87.5888 127.746 88.9993 127.186 90.2739C126.608 91.5485 125.826 92.6701 124.84 93.6218C123.838 94.5735 122.665 95.3212 121.323 95.865C119.98 96.4089 118.518 96.6808 116.972 96.6808C115.426 96.6808 113.964 96.4089 112.621 95.865C111.279 95.3212 110.106 94.5735 109.104 93.6218C108.101 92.6701 107.319 91.5655 106.758 90.2739C106.181 88.9993 105.909 87.5888 105.909 86.0933C105.909 84.5978 106.198 83.1873 106.758 81.9127C107.336 80.6381 108.118 79.5165 109.104 78.5648C110.106 77.6131 111.279 76.8654 112.621 76.3215C113.964 75.7777 115.426 75.5058 116.972 75.5058C118.518 75.5058 119.98 75.7777 121.323 76.3215C122.665 76.8654 123.838 77.6131 124.84 78.5648C125.843 79.5165 126.625 80.6211 127.186 81.9127C127.763 83.1873 128.035 84.5978 128.035 86.0933ZM121.492 86.0933C121.492 84.6998 121.068 83.5611 120.201 82.6774C119.351 81.7937 118.264 81.3519 116.938 81.3519C115.612 81.3519 114.525 81.7937 113.675 82.6774C112.825 83.5611 112.384 84.6998 112.384 86.0933C112.384 87.4868 112.808 88.6424 113.675 89.5091C114.525 90.3929 115.612 90.8347 116.938 90.8347C118.264 90.8347 119.351 90.3929 120.201 89.5091C121.051 88.6254 121.492 87.4868 121.492 86.0933Z" fill="white"/>
<path d="M152.966 86.0933C152.966 86.4502 152.949 86.8071 152.915 87.1639C152.881 87.5208 152.83 87.8777 152.779 88.2346H138.436C138.776 89.0843 139.303 89.7811 140.033 90.2909C140.764 90.8007 141.614 91.0726 142.599 91.0726C143.585 91.0726 144.35 90.9367 145.115 90.6648C145.879 90.3929 146.576 90.002 147.188 89.5092L152.014 93.095C150.774 94.2336 149.329 95.1173 147.698 95.7461C146.066 96.3749 144.333 96.6808 142.481 96.6808C140.628 96.6808 139.49 96.4089 138.164 95.882C136.838 95.3552 135.7 94.6245 134.765 93.6898C133.813 92.7551 133.083 91.6504 132.556 90.3419C132.029 89.0503 131.757 87.6398 131.757 86.1103C131.757 84.5808 132.029 83.1703 132.556 81.8787C133.083 80.5871 133.83 79.4655 134.765 78.5308C135.717 77.5961 136.838 76.8654 138.164 76.3386C139.49 75.8117 140.917 75.5398 142.481 75.5398C144.044 75.5398 145.489 75.8117 146.78 76.3386C148.072 76.8654 149.159 77.5961 150.094 78.5308C151.012 79.4655 151.725 80.5871 152.235 81.8787C152.745 83.1703 153 84.5808 153 86.1103L152.966 86.0933ZM138.419 83.7991H146.593C146.304 82.9154 145.828 82.2186 145.166 81.6748C144.503 81.148 143.636 80.876 142.582 80.876C141.529 80.876 140.645 81.148 139.931 81.6748C139.235 82.2016 138.725 82.9154 138.419 83.7991Z" fill="white"/>
</svg>
