<svg width="181" height="115" viewBox="0 0 181 115" fill="none" xmlns="http://www.w3.org/2000/svg">
<path d="M158.825 49.9193L134.66 5.85038C132.689 2.25169 128.91 0 124.788 0H67.6113C68.4959 0.965012 69.2599 2.03055 69.9032 3.1966L105.006 67.2291C106.976 70.8278 110.755 73.0795 114.877 73.0795H145.134C157.036 73.0795 164.575 60.3333 158.845 49.8991L158.825 49.9193Z" fill="#2BD6B5"/>
<path d="M55.2068 0.0205078C51.1055 0.0205078 47.3259 2.2521 45.3355 5.87089L22.1551 48.1304C16.4254 58.5645 23.9846 71.3107 35.8664 71.3107H72.3358C76.437 71.3107 80.2167 69.0791 82.207 65.4604L89.9874 51.2867L65.0781 5.87089C63.1078 2.2722 59.3282 0.0205078 55.2068 0.0205078Z" fill="url(#paint0_linear_180_125)"/>
<path d="M40.7918 114.093H33.3331V101.166C33.3331 99.7181 32.8908 98.5521 32.0263 97.6273C31.1618 96.7025 30.0561 96.24 28.7292 96.24C27.4023 96.24 26.3167 96.7025 25.4321 97.6273C24.5676 98.5521 24.1253 99.7382 24.1253 101.166V114.093H16.6666V101.166C16.6666 99.7181 16.2243 98.5521 15.3598 97.6273C14.4953 96.7025 13.3895 96.24 12.0626 96.24C10.7358 96.24 9.65012 96.7025 8.76552 97.6273C7.90103 98.5521 7.45874 99.7382 7.45874 101.166V114.093H0V89.4247L6.63445 92.5609C7.55926 91.5758 8.665 90.7918 9.95168 90.2087C11.2384 89.6257 12.6256 89.3442 14.1334 89.3442C15.6412 89.3442 17.2094 89.6659 18.5564 90.3092C19.9034 90.9526 21.0493 91.8372 21.954 92.9831C23.0598 91.8573 24.3665 90.9526 25.8945 90.3092C27.4023 89.6659 29.0509 89.3442 30.8 89.3442C32.549 89.3442 33.4738 89.6056 34.7002 90.1082C35.9266 90.6108 36.9921 91.2944 37.8767 92.179C38.7613 93.0435 39.465 94.0889 39.9877 95.275C40.5104 96.4612 40.7717 97.768 40.7717 99.1351V114.093H40.7918Z" fill="#004034"/>
<path d="M71.2702 101.849C71.2702 103.618 70.9284 105.287 70.265 106.794C69.5814 108.302 68.6566 109.629 67.4905 110.755C66.3044 111.881 64.9172 112.765 63.3289 113.409C61.7407 114.052 60.0117 114.374 58.1822 114.374C56.3527 114.374 54.6237 114.052 53.0355 113.409C51.4472 112.765 50.06 111.881 48.8739 110.755C47.6877 109.629 46.7629 108.322 46.0995 106.794C45.4159 105.287 45.0942 103.618 45.0942 101.849C45.0942 100.08 45.436 98.4109 46.0995 96.9031C46.783 95.3953 47.7078 94.0684 48.8739 92.9425C50.06 91.8167 51.4472 90.9321 53.0355 90.2887C54.6237 89.6454 56.3527 89.3237 58.1822 89.3237C60.0117 89.3237 61.7407 89.6454 63.3289 90.2887C64.9172 90.9321 66.3044 91.8167 67.4905 92.9425C68.6767 94.0684 69.6015 95.3752 70.265 96.9031C70.9485 98.4109 71.2702 100.08 71.2702 101.849ZM63.53 101.849C63.53 100.2 63.0274 98.8532 62.002 97.8078C60.9968 96.7624 59.7101 96.2396 58.142 96.2396C56.5739 96.2396 55.2872 96.7624 54.282 97.8078C53.2767 98.8532 52.754 100.2 52.754 101.849C52.754 103.497 53.2566 104.864 54.282 105.89C55.2872 106.935 56.5739 107.458 58.142 107.458C59.7101 107.458 60.9968 106.935 62.002 105.89C63.0073 104.844 63.53 103.497 63.53 101.849Z" fill="#004034"/>
<path d="M99.939 114.092H92.4803V101.165C92.4803 99.7176 92.038 98.5516 91.1735 97.6268C90.309 96.702 89.2033 96.2396 87.8764 96.2396C86.5495 96.2396 85.4638 96.702 84.5793 97.6268C83.7148 98.5516 83.2725 99.7377 83.2725 101.165V114.092H75.8137V89.4242L82.4482 92.5605C83.373 91.5753 84.4787 90.7913 85.7654 90.2082C87.0521 89.6252 88.4393 89.3438 89.9471 89.3438C91.4549 89.3438 92.6411 89.6051 93.8675 90.1077C95.0938 90.6103 96.1594 91.2939 97.044 92.1785C97.9286 93.043 98.6322 94.0884 99.1549 95.2746C99.6777 96.4607 99.939 97.7675 99.939 99.1346V114.092Z" fill="#004034"/>
<path d="M119.199 97.6669C118.857 97.2447 118.435 96.9029 117.912 96.6416C117.39 96.3802 116.827 96.2596 116.203 96.2596C115.078 96.2596 114.113 96.6416 113.349 97.4055C112.585 98.1695 112.203 99.1747 112.203 100.401V114.112H104.744V89.4442L111.419 92.5805C112.122 91.5954 113.047 90.8113 114.153 90.2283C115.279 89.6452 116.525 89.3638 117.892 89.3638C119.259 89.3638 120.807 89.7256 122.054 90.4695C123.3 91.2134 124.265 92.1784 124.929 93.4048L119.179 97.687L119.199 97.6669Z" fill="#004034"/>
<path d="M151.467 101.849C151.467 103.618 151.125 105.287 150.461 106.794C149.778 108.302 148.853 109.629 147.687 110.755C146.501 111.881 145.114 112.765 143.525 113.409C141.937 114.052 140.208 114.374 138.379 114.374C136.549 114.374 134.82 114.052 133.232 113.409C131.644 112.765 130.257 111.881 129.07 110.755C127.884 109.629 126.959 108.322 126.296 106.794C125.612 105.287 125.291 103.618 125.291 101.849C125.291 100.08 125.633 98.4109 126.296 96.9031C126.98 95.3953 127.904 94.0684 129.07 92.9425C130.257 91.8167 131.644 90.9321 133.232 90.2887C134.82 89.6454 136.549 89.3237 138.379 89.3237C140.208 89.3237 141.937 89.6454 143.525 90.2887C145.114 90.9321 146.501 91.8167 147.687 92.9425C148.873 94.0684 149.798 95.3752 150.461 96.9031C151.145 98.4109 151.467 100.08 151.467 101.849ZM143.727 101.849C143.727 100.2 143.224 98.8532 142.199 97.8078C141.193 96.7624 139.907 96.2396 138.339 96.2396C136.77 96.2396 135.484 96.7624 134.478 97.8078C133.473 98.8532 132.951 100.2 132.951 101.849C132.951 103.497 133.453 104.864 134.478 105.89C135.484 106.935 136.77 107.458 138.339 107.458C139.907 107.458 141.193 106.935 142.199 105.89C143.204 104.844 143.727 103.497 143.727 101.849Z" fill="#004034"/>
<path d="M180.96 101.849C180.96 102.271 180.94 102.693 180.899 103.115C180.859 103.537 180.799 103.96 180.739 104.382H163.77C164.173 105.387 164.796 106.211 165.66 106.814C166.525 107.418 167.53 107.739 168.696 107.739C169.862 107.739 170.767 107.578 171.671 107.257C172.576 106.935 173.4 106.473 174.124 105.89L179.834 110.132C178.366 111.479 176.657 112.524 174.727 113.268C172.797 114.012 170.747 114.374 168.555 114.374C166.364 114.374 165.017 114.052 163.449 113.429C161.881 112.806 160.534 111.941 159.428 110.835C158.302 109.73 157.438 108.423 156.814 106.875C156.191 105.347 155.869 103.678 155.869 101.869C155.869 100.059 156.191 98.3906 156.814 96.8627C157.438 95.3348 158.322 94.0079 159.428 92.9021C160.554 91.7964 161.881 90.9319 163.449 90.3087C165.017 89.6854 166.706 89.3638 168.555 89.3638C170.405 89.3638 172.114 89.6854 173.642 90.3087C175.17 90.9319 176.456 91.7964 177.562 92.9021C178.648 94.0079 179.492 95.3348 180.095 96.8627C180.698 98.3906 181 100.059 181 101.869L180.96 101.849ZM163.75 99.1345H173.421C173.079 98.0891 172.516 97.2648 171.732 96.6215C170.948 95.9982 169.922 95.6765 168.676 95.6765C167.429 95.6765 166.384 95.9982 165.54 96.6215C164.715 97.2447 164.112 98.0891 163.75 99.1345Z" fill="#004034"/>
<defs>
<linearGradient id="paint0_linear_180_125" x1="76.5577" y1="9.50979" x2="42.4003" y2="76.5379" gradientUnits="userSpaceOnUse">
<stop stop-color="#004B3E"/>
<stop offset="1" stop-color="#0D8472"/>
</linearGradient>
</defs>
</svg>
