<svg width="45" height="45" viewBox="0 0 45 45" fill="none" xmlns="http://www.w3.org/2000/svg">
<path d="M10.1921 3.86045C8.94523 3.23608 7.49585 4.16418 7.49585 5.55919V37.4342C7.49585 38.1448 7.91584 38.8161 8.54959 39.133L12.2996 41.008C12.8284 41.2724 13.4134 41.2724 13.9421 41.008L16.8709 39.5436L19.7996 41.008C20.3284 41.2724 20.9134 41.2724 21.4421 41.008L24.3709 39.5436L27.2996 41.008C27.8284 41.2724 28.4134 41.2724 28.9421 41.008L31.8709 39.5436L34.7996 41.008C36.0465 41.6324 37.4959 40.7023 37.4959 39.3092V7.43419C37.4959 6.72356 37.0759 6.05233 36.4422 5.73545L32.6921 3.86045C32.1634 3.59608 31.5784 3.59608 31.0496 3.86045L28.1209 5.32481L25.1921 3.86045C24.6634 3.59608 24.0784 3.59608 23.5496 3.86045L20.6209 5.32481L17.6921 3.86045C17.1634 3.59608 16.5784 3.59608 16.0496 3.86045C15.684 4.04233 14.1127 4.82794 13.1209 5.32481L10.1921 3.86045ZM16.8709 7.66856L19.7996 9.13295C20.3284 9.39733 20.9134 9.39733 21.4421 9.13295L24.3709 7.66856L27.2996 9.13295C27.8284 9.39733 28.4134 9.39733 28.9421 9.13295L31.8709 7.66856L33.7459 8.60606V36.2623L32.6921 35.7354C32.1634 35.4711 31.5784 35.4711 31.0496 35.7354L28.1209 37.1998L25.1921 35.7354C24.6634 35.4711 24.0784 35.4711 23.5496 35.7354L20.6209 37.1998L17.6921 35.7354C17.1634 35.4711 16.5784 35.4711 16.0496 35.7354L13.1209 37.1998L11.2459 36.2623V8.60606L12.2996 9.13295C12.8284 9.39733 13.4134 9.39733 13.9421 9.13295C14.3077 8.9492 15.879 8.16356 16.8709 7.66856ZM16.8709 13.0592C15.8359 13.0592 14.9959 13.8992 14.9959 14.9342C14.9959 15.9692 15.8359 16.8092 16.8709 16.8092H22.4959C23.5309 16.8092 24.3709 15.9692 24.3709 14.9342C24.3709 13.8992 23.5309 13.0592 22.4959 13.0592H16.8709ZM28.1209 13.0592C27.0859 13.0592 26.2459 13.8992 26.2459 14.9342C26.2459 15.9692 27.0859 16.8092 28.1209 16.8092C29.1559 16.8092 29.9959 15.9692 29.9959 14.9342C29.9959 13.8992 29.1559 13.0592 28.1209 13.0592ZM16.8709 20.5592C15.8359 20.5592 14.9959 21.3992 14.9959 22.4342C14.9959 23.4692 15.8359 24.3092 16.8709 24.3092H22.4959C23.5309 24.3092 24.3709 23.4692 24.3709 22.4342C24.3709 21.3992 23.5309 20.5592 22.4959 20.5592H16.8709ZM28.1209 20.5592C27.0859 20.5592 26.2459 21.3992 26.2459 22.4342C26.2459 23.4692 27.0859 24.3092 28.1209 24.3092C29.1559 24.3092 29.9959 23.4692 29.9959 22.4342C29.9959 21.3992 29.1559 20.5592 28.1209 20.5592ZM16.8709 28.0592C15.8359 28.0592 14.9959 28.8992 14.9959 29.9342C14.9959 30.9692 15.8359 31.8092 16.8709 31.8092H22.4959C23.5309 31.8092 24.3709 30.9692 24.3709 29.9342C24.3709 28.8992 23.5309 28.0592 22.4959 28.0592H16.8709ZM28.1209 28.0592C27.0859 28.0592 26.2459 28.8992 26.2459 29.9342C26.2459 30.9692 27.0859 31.8092 28.1209 31.8092C29.1559 31.8092 29.9959 30.9692 29.9959 29.9342C29.9959 28.8992 29.1559 28.0592 28.1209 28.0592Z" fill="#C8F8B0"/>
</svg>
