<svg width="182" height="262" viewBox="0 0 182 262" fill="none" xmlns="http://www.w3.org/2000/svg">
  <rect x="2" y="1" width="178" height="22" rx="4" fill="#3B4150" stroke="#787F90" stroke-width="2"/>
  <rect x="11" y="8" width="160" height="8" rx="2" fill="#08162A"/>
  <g clip-path="url(#clip0_401_3618)">
    <path d="M23.1392 22.1608L29.9168 15.0555L36.6944 22.1608L43.472 15.0555L50.2488 22.1608L57.0264 15.0555L63.7963 22.1608L70.5731 15.0555L77.3507 22.1608L84.1283 15.0555L90.9052 22.1608L97.6751 15.0555L104.453 22.1608L111.229 15.0555L118.007 22.1608L124.785 15.0555L131.554 22.1608L138.331 15.0555L145.109 22.1608L151.887 15.0555L158.663 22.1608L165.433 15.0555L166 15.6438V247.251L165.433 247.839L158.663 240.734L151.887 247.839L145.109 240.734L138.331 247.839L131.554 240.734L124.785 247.839L118.007 240.734L111.229 247.839L104.453 240.734L97.6751 247.839L90.9052 240.734L84.1283 247.839L77.3507 240.734L70.5731 247.839L63.7963 240.734L57.0264 247.839L50.2488 240.734L43.472 247.839L36.6944 240.734L29.9168 247.839L23.1392 240.734L16.3146 247.895H16V15H16.3146L23.1392 22.1608Z" fill="white"/>
    <path d="M31.7896 101.053C31.7896 99.3086 33.2034 97.8948 34.9474 97.8948H147.053C148.797 97.8948 150.211 99.3086 150.211 101.053V107.368C150.211 109.113 148.797 110.526 147.053 110.526H34.9474C33.2034 110.526 31.7896 109.113 31.7896 107.368V101.053Z" fill="#004034"/>
    <path d="M31.7896 176.842C31.7896 175.098 33.2034 173.684 34.9474 173.684H147.053C148.797 173.684 150.211 175.098 150.211 176.842V183.158C150.211 184.902 148.797 186.316 147.053 186.316H34.9474C33.2034 186.316 31.7896 184.902 31.7896 183.158V176.842Z" fill="#004034"/>
    <path d="M31.7896 126.316C31.7896 124.572 33.2034 123.158 34.9474 123.158H91.7895C93.5336 123.158 94.9474 124.572 94.9474 126.316V132.632C94.9474 134.376 93.5336 135.79 91.7895 135.79H34.9474C33.2034 135.79 31.7896 134.376 31.7896 132.632V126.316Z" fill="#004034"/>
    <path d="M31.7896 202.105C31.7896 200.361 33.2034 198.947 34.9474 198.947H72.0527C73.7968 198.947 75.2106 200.361 75.2106 202.105V208.421C75.2106 210.165 73.7968 211.579 72.0527 211.579H34.9474C33.2034 211.579 31.7896 210.165 31.7896 208.421V202.105Z" fill="#004034"/>
    <path d="M31.7896 151.579C31.7896 149.835 33.2034 148.421 34.9474 148.421H123.368C125.113 148.421 126.526 149.835 126.526 151.579V157.895C126.526 159.639 125.113 161.053 123.368 161.053H34.9474C33.2034 161.053 31.7896 159.639 31.7896 157.895V151.579Z" fill="#004034"/>
    <path d="M114.236 56.7021L105.896 41.4928C105.216 40.2508 103.911 39.4736 102.489 39.4736H82.7554C83.0607 39.8067 83.3243 40.1744 83.5464 40.5769L95.6611 62.6763C96.3411 63.9183 97.6456 64.6954 99.068 64.6954H109.511C113.618 64.6954 116.22 60.2963 114.243 56.6952L114.236 56.7021Z" fill="#2BD6B5"/>
    <path d="M78.4741 39.4807C77.0586 39.4807 75.7541 40.2509 75.0672 41.4998L67.067 56.0847C65.0895 59.6859 67.6984 64.0849 71.7992 64.0849H84.3857C85.8012 64.0849 87.1057 63.3147 87.7926 62.0658L90.4778 57.1741L81.8809 41.4998C81.2009 40.2578 79.8965 39.4807 78.4741 39.4807Z" fill="url(#paint0_linear_401_3618)"/>
    <path d="M73.4993 78.8502H70.9251V74.3887C70.9251 73.8891 70.7724 73.4867 70.4741 73.1675C70.1757 72.8484 69.7941 72.6888 69.3361 72.6888C68.8782 72.6888 68.5035 72.8484 68.1982 73.1675C67.8999 73.4867 67.7472 73.8961 67.7472 74.3887V78.8502H65.173V74.3887C65.173 73.8891 65.0203 73.4867 64.722 73.1675C64.4236 72.8484 64.042 72.6888 63.5841 72.6888C63.1261 72.6888 62.7514 72.8484 62.4461 73.1675C62.1478 73.4867 61.9951 73.8961 61.9951 74.3887V78.8502H59.4209V70.3366L61.7106 71.419C62.0298 71.079 62.4114 70.8084 62.8555 70.6072C63.2996 70.406 63.7783 70.3088 64.2987 70.3088C64.8191 70.3088 65.3603 70.4199 65.8252 70.6419C66.2901 70.8639 66.6856 71.1692 66.9978 71.5647C67.3795 71.1762 67.8305 70.8639 68.3578 70.6419C68.8782 70.4199 69.4472 70.3088 70.0508 70.3088C70.6545 70.3088 70.9736 70.399 71.3969 70.5725C71.8202 70.746 72.1879 70.9819 72.4932 71.2872C72.7985 71.5855 73.0413 71.9463 73.2218 72.3557C73.4022 72.7651 73.4924 73.2161 73.4924 73.6879V78.8502H73.4993Z" fill="#004034"/>
    <path d="M84.0179 74.6247C84.0179 75.2353 83.9 75.8112 83.671 76.3316C83.4351 76.852 83.1159 77.31 82.7135 77.6985C82.3041 78.0871 81.8253 78.3924 81.2772 78.6144C80.729 78.8365 80.1323 78.9475 79.5009 78.9475C78.8695 78.9475 78.2728 78.8365 77.7246 78.6144C77.1765 78.3924 76.6977 78.0871 76.2883 77.6985C75.879 77.31 75.5598 76.859 75.3308 76.3316C75.0949 75.8112 74.9839 75.2353 74.9839 74.6247C74.9839 74.0141 75.1018 73.4382 75.3308 72.9178C75.5667 72.3975 75.8859 71.9395 76.2883 71.5509C76.6977 71.1624 77.1765 70.8571 77.7246 70.6351C78.2728 70.413 78.8695 70.302 79.5009 70.302C80.1323 70.302 80.729 70.413 81.2772 70.6351C81.8253 70.8571 82.3041 71.1624 82.7135 71.5509C83.1229 71.9395 83.442 72.3905 83.671 72.9178C83.9069 73.4382 84.0179 74.0141 84.0179 74.6247ZM81.3466 74.6247C81.3466 74.0558 81.1731 73.5909 80.8192 73.2301C80.4723 72.8693 80.0282 72.6889 79.487 72.6889C78.9458 72.6889 78.5018 72.8693 78.1548 73.2301C77.8079 73.5909 77.6275 74.0558 77.6275 74.6247C77.6275 75.1937 77.801 75.6655 78.1548 76.0194C78.5018 76.3802 78.9458 76.5606 79.487 76.5606C80.0282 76.5606 80.4723 76.3802 80.8192 76.0194C81.1662 75.6586 81.3466 75.1937 81.3466 74.6247Z" fill="#004034"/>
    <path d="M93.9127 78.8502H91.3385V74.3887C91.3385 73.8891 91.1859 73.4867 90.8875 73.1675C90.5892 72.8484 90.2075 72.6888 89.7496 72.6888C89.2916 72.6888 88.917 72.8484 88.6117 73.1675C88.3133 73.4867 88.1606 73.8961 88.1606 74.3887V78.8502H85.5864V70.3366L87.8762 71.419C88.1953 71.079 88.577 70.8084 89.021 70.6072C89.4651 70.406 89.9439 70.3088 90.4643 70.3088C90.9846 70.3088 91.394 70.399 91.8173 70.5725C92.2405 70.746 92.6083 70.9819 92.9136 71.2872C93.2189 71.5855 93.4617 71.9463 93.6421 72.3557C93.8225 72.7651 93.9127 73.2161 93.9127 73.6879V78.8502Z" fill="#004034"/>
    <path d="M100.56 73.1813C100.442 73.0356 100.296 72.9176 100.116 72.8274C99.9352 72.7372 99.7409 72.6956 99.5258 72.6956C99.1372 72.6956 98.8042 72.8274 98.5405 73.0911C98.2768 73.3548 98.145 73.7017 98.145 74.125V78.8571H95.5708V70.3434L97.8744 71.4258C98.1173 71.0859 98.4364 70.8153 98.8181 70.614C99.2066 70.4128 99.6368 70.3157 100.109 70.3157C100.58 70.3157 101.115 70.4406 101.545 70.6973C101.975 70.954 102.308 71.2871 102.537 71.7103L100.553 73.1882L100.56 73.1813Z" fill="#004034"/>
    <path d="M111.696 74.6247C111.696 75.2353 111.578 75.8112 111.349 76.3316C111.113 76.852 110.794 77.31 110.392 77.6985C109.982 78.0871 109.504 78.3924 108.955 78.6144C108.407 78.8365 107.811 78.9475 107.179 78.9475C106.548 78.9475 105.951 78.8365 105.403 78.6144C104.855 78.3924 104.376 78.0871 103.967 77.6985C103.557 77.31 103.238 76.859 103.009 76.3316C102.773 75.8112 102.662 75.2353 102.662 74.6247C102.662 74.0141 102.78 73.4382 103.009 72.9178C103.245 72.3975 103.564 71.9395 103.967 71.5509C104.376 71.1624 104.855 70.8571 105.403 70.6351C105.951 70.413 106.548 70.302 107.179 70.302C107.811 70.302 108.407 70.413 108.955 70.6351C109.504 70.8571 109.982 71.1624 110.392 71.5509C110.801 71.9395 111.12 72.3905 111.349 72.9178C111.585 73.4382 111.696 74.0141 111.696 74.6247ZM109.025 74.6247C109.025 74.0558 108.851 73.5909 108.497 73.2301C108.151 72.8693 107.706 72.6889 107.165 72.6889C106.624 72.6889 106.18 72.8693 105.833 73.2301C105.486 73.5909 105.306 74.0558 105.306 74.6247C105.306 75.1937 105.479 75.6655 105.833 76.0194C106.18 76.3802 106.624 76.5606 107.165 76.5606C107.706 76.5606 108.151 76.3802 108.497 76.0194C108.844 75.6586 109.025 75.1937 109.025 74.6247Z" fill="#004034"/>
    <path d="M121.875 74.6245C121.875 74.7702 121.868 74.916 121.854 75.0617C121.84 75.2074 121.82 75.3531 121.799 75.4988H115.943C116.081 75.8457 116.297 76.1302 116.595 76.3384C116.893 76.5465 117.24 76.6575 117.643 76.6575C118.045 76.6575 118.357 76.602 118.67 76.491C118.982 76.38 119.266 76.2204 119.516 76.0192L121.487 77.4832C120.98 77.9481 120.39 78.3089 119.724 78.5656C119.058 78.8224 118.35 78.9473 117.594 78.9473C116.838 78.9473 116.373 78.8362 115.832 78.6212C115.29 78.4061 114.826 78.1077 114.444 77.7261C114.055 77.3445 113.757 76.8934 113.542 76.3592C113.327 75.8318 113.216 75.2559 113.216 74.6315C113.216 74.007 113.327 73.4311 113.542 72.9038C113.757 72.3764 114.062 71.9185 114.444 71.5369C114.833 71.1552 115.29 70.8569 115.832 70.6418C116.373 70.4267 116.956 70.3157 117.594 70.3157C118.232 70.3157 118.822 70.4267 119.35 70.6418C119.877 70.8569 120.321 71.1552 120.703 71.5369C121.077 71.9185 121.369 72.3764 121.577 72.9038C121.785 73.4311 121.889 74.007 121.889 74.6315L121.875 74.6245ZM115.936 73.6878H119.273C119.155 73.327 118.961 73.0425 118.69 72.8205C118.42 72.6054 118.066 72.4944 117.636 72.4944C117.206 72.4944 116.845 72.6054 116.553 72.8205C116.269 73.0356 116.061 73.327 115.936 73.6878Z" fill="#004034"/>
  </g>
  <defs>
    <linearGradient id="paint0_linear_401_3618" x1="85.8429" y1="42.7557" x2="74.0542" y2="65.889" gradientUnits="userSpaceOnUse">
      <stop stop-color="#004B3E"/>
      <stop offset="1" stop-color="#0D8472"/>
    </linearGradient>
    <clipPath id="clip0_401_3618">
      <rect width="150" height="233" fill="white" transform="translate(16 15)"/>
    </clipPath>
  </defs>
</svg>
