<svg width="414" height="276" viewBox="0 0 414 276" fill="none" xmlns="http://www.w3.org/2000/svg">
  <rect x="1" y="1" width="412" height="22" rx="4" fill="#3B4150" stroke="#787F90" stroke-width="2"/>
  <rect x="23" y="8" width="368" height="8" rx="2" fill="#08162A"/>
  <g clip-path="url(#clip0_401_1003)" class="money-bill">
    <g clip-path="url(#clip1_401_1003)" filter="url(#filter0_d_401_1003)">
      <path d="M383.293 86H32V262H383.293V86Z" fill="#FAF0F4"/>
      <path d="M246.776 262H325.277V86H246.776L246.776 262Z" fill="#EDC1D0"/>
      <path d="M359.553 86H340.267V262H359.553V86Z" fill="#F4CFD8"/>
      <path d="M246.777 86H116.628V262H246.777V86Z" fill="#F4CFD8"/>
      <path d="M214.199 105.724H127.306V117.842H214.199V105.724Z" fill="#E3B1BF"/>
      <path d="M144.887 237.872H80.0229V251.207H144.887V237.872Z" fill="#E3B1BF"/>
      <path d="M116.624 105.724H79.0933V131.18H116.624V105.724Z" fill="#197CC1"/>
      <path d="M42.3988 248.798V228.92C41.6737 229.053 39.9508 229.146 39.2329 229.124V225.603C41.0958 225.384 42.9336 224.476 43.9494 223.417H47.1512V248.802H42.3988V248.798Z" fill="#F1D5DE"/>
      <path d="M67.9156 235.682C67.9156 243.985 65.9199 249.164 59.6707 249.164C53.4215 249.164 51.415 243.945 51.415 235.815C51.415 227.685 54.2327 223.13 59.7748 223.13C65.3169 223.13 67.912 227.326 67.912 235.682H67.9156ZM56.2392 235.672C56.2392 241.878 56.8745 245.399 59.6922 245.399C62.5099 245.399 63.1022 241.856 63.1022 235.7C63.1022 229.544 62.4058 226.906 59.7353 226.906C57.0648 226.906 56.2428 229.602 56.2428 235.672H56.2392Z" fill="#F1D5DE"/>
      <path d="M91.3402 225.804H85.5433V228.274H92.0186V231.397H81.4263V217.38H91.6956V220.503H85.5433V222.692H91.3402V225.804Z" fill="#B33852"/>
      <path d="M98.3968 217.38V225.129C98.3968 227.297 99.2296 228.626 101.006 228.626C102.783 228.626 103.616 227.405 103.616 225.129V217.38H107.733V224.975C107.733 229.451 105.256 231.637 100.848 231.637C96.4406 231.637 94.2798 229.573 94.2798 224.878V217.38H98.3968Z" fill="#B33852"/>
      <path d="M110.526 217.567C111.685 217.401 113.466 217.258 115.626 217.258C118.046 217.258 119.7 217.577 120.845 218.356C121.8 219.017 122.367 220.029 122.367 221.425C122.367 223.249 120.838 224.455 119.747 224.803V224.882C120.741 225.28 121.291 226.185 121.696 227.373C122.181 228.805 122.687 230.855 122.974 231.397H118.782C118.545 230.984 118.15 229.961 117.669 228.184C117.227 226.501 116.649 226.163 115.314 226.163H114.603V231.397H110.529V217.57L110.526 217.567ZM114.6 223.424H115.763C117.349 223.424 118.286 222.775 118.286 221.716C118.286 220.657 117.486 220.097 116.1 220.09C115.239 220.09 114.815 220.129 114.6 220.172V223.421V223.424Z" fill="#B33852"/>
      <path d="M139.564 224.282C139.564 228.629 136.506 231.637 131.571 231.637C126.635 231.637 123.947 228.475 123.947 224.494C123.947 220.291 127.055 217.136 131.829 217.136C136.603 217.136 139.561 220.305 139.561 224.279L139.564 224.282ZM128.319 224.404C128.319 226.906 129.661 228.625 131.782 228.625C133.904 228.625 135.192 226.849 135.192 224.39C135.192 221.931 133.879 220.147 131.757 220.147C129.636 220.147 128.315 221.924 128.315 224.404H128.319Z" fill="#B33852"/>
      <path d="M323.662 252.718H215.542V167.347C215.542 167.347 235.509 136.065 269.602 136.065C312.915 136.065 323.662 161.963 323.662 161.963V252.718Z" fill="#EBB6C6"/>
      <path d="M281.077 207.846C287.408 207.846 292.552 212.986 292.552 219.322V241.888H269.605V219.322C269.605 212.99 274.745 207.846 281.08 207.846H281.077Z" fill="#F4CFD8"/>
      <path d="M246.776 122.781L249.504 128.312L255.606 129.199L251.191 133.502L252.232 139.579L246.776 136.708L241.317 139.579L242.361 133.502L237.946 129.199L244.048 128.312L246.776 122.781Z" fill="#EABAC9"/>
      <path d="M191.104 121.047L193.836 126.575L199.938 127.461L195.523 131.765L196.564 137.842L191.104 134.974L185.648 137.842L186.689 131.765L182.274 127.461L188.376 126.575L191.104 121.047Z" fill="#EABAC9"/>
      <path d="M218.176 115.132L220.904 120.66L227.006 121.546L222.591 125.85L223.636 131.927L218.176 129.059L212.72 131.927L213.761 125.85L209.346 121.546L215.448 120.66L218.176 115.132Z" fill="#EABAC9"/>
      <path d="M170.753 140.889L173.48 146.417L179.582 147.304L175.167 151.607L176.208 157.684L170.753 154.816L165.293 157.684L166.334 151.607L161.919 147.304L168.021 146.417L170.753 140.889Z" fill="#EABAC9"/>
      <path d="M164.475 168.14L167.206 173.668L173.308 174.555L168.893 178.858L169.934 184.935L164.475 182.067L159.019 184.935L160.06 178.858L155.645 174.555L161.747 173.668L164.475 168.14Z" fill="#EABAC9"/>
      <path d="M171.646 197.541L174.378 203.069L180.476 203.956L176.061 208.259L177.106 214.336L171.646 211.468L166.19 214.336L167.231 208.259L162.816 203.956L168.918 203.069L171.646 197.541Z" fill="#EABAC9"/>
      <path d="M191.104 215.467L193.836 220.998L199.938 221.885L195.523 226.188L196.564 232.265L191.104 229.394L185.648 232.265L186.689 226.188L182.274 221.885L188.376 220.998L191.104 215.467Z" fill="#EABAC9"/>
      <path d="M218.176 222.997L220.904 228.525L227.006 229.412L222.591 233.715L223.636 239.792L218.176 236.924L212.72 239.792L213.761 233.715L209.346 229.412L215.448 228.525L218.176 222.997Z" fill="#EABAC9"/>
      <path d="M251.949 157.153V113.725C249.045 115.387 243.252 117.045 240.341 117.361V109.514C246.159 108.211 251.662 104.794 254.882 101.542H262.75V157.153H251.953H251.949Z" fill="#B33852"/>
      <path d="M320.173 128.962C320.173 144.242 314.638 158.223 297.692 158.223C280.747 158.223 275.223 144.805 275.223 129.392C275.223 113.979 281.641 100.559 297.919 100.559C314.197 100.559 320.173 113.75 320.173 128.958V128.962ZM286.368 129.306C286.368 139.328 288.428 149.863 297.8 149.863C307.172 149.863 309.031 139.999 309.031 129.012C309.031 118.893 307.086 108.897 297.958 108.897C288.83 108.897 286.368 117.576 286.368 129.303V129.306Z" fill="#B33852"/>
    </g>
    <g clip-path="url(#clip2_401_1003)" filter="url(#filter1_d_401_1003)">
      <path d="M381.297 66H32V241H381.297V66Z" fill="#E3F2F7"/>
      <path d="M245.556 241H323.611V66H245.556L245.556 241Z" fill="#ACD0EF"/>
      <path d="M357.692 66H338.515V241H357.692V66Z" fill="#C6E5F3"/>
      <path d="M245.556 66H116.147V241H245.556V66Z" fill="#C6E5F3"/>
      <path d="M213.164 85.6118H126.765V97.6608H213.164V85.6118Z" fill="#90C2E6"/>
      <path d="M143.322 217.009H78.8257V230.268H143.322V217.009Z" fill="#90C2E6"/>
      <path d="M116.143 85.6118H78.8257V110.923H116.143V85.6118Z" fill="#197CC1"/>
      <path d="M39.4341 227.873V227.655C39.4484 223.933 40.8831 220.371 46.1688 215.706C49.1989 212.89 50.1412 211.841 50.1412 209.457C50.1412 207.465 49.3381 206.074 47.2681 206.074C45.041 206.074 44.2201 207.68 44.0488 210.256H39.5019C39.6161 206.159 41.7397 202.351 47.418 202.351C52.5752 202.351 54.9736 205.431 54.9736 209.514C54.9736 212.683 53.8993 214.511 49.9127 217.894C47.4537 220.061 45.6442 222.123 45.0446 223.894H55.6446L55.0379 227.873H39.4341Z" fill="#BFDAEE"/>
      <path d="M74.3394 214.832C74.3394 223.087 72.355 228.237 66.1414 228.237C59.9277 228.237 57.9326 223.048 57.9326 214.964C57.9326 206.88 60.7343 202.351 66.2449 202.351C71.7554 202.351 74.3359 206.523 74.3359 214.832H74.3394ZM62.7294 214.821C62.7294 220.992 63.3611 224.493 66.1628 224.493C68.9645 224.493 69.5534 220.971 69.5534 214.85C69.5534 208.729 68.861 206.106 66.2056 206.106C63.5503 206.106 62.733 208.786 62.733 214.821H62.7294Z" fill="#BFDAEE"/>
      <path d="M90.0788 205.353H84.3149V207.808H90.7534V210.913H80.2212V196.976H90.4322V200.081H84.3149V202.258H90.0788V205.353Z" fill="#1D7FB9"/>
      <path d="M97.0956 196.976V204.682C97.0956 206.837 97.9236 208.158 99.6903 208.158C101.457 208.158 102.285 206.944 102.285 204.682V196.976H106.379V204.528C106.379 208.979 103.916 211.152 99.5333 211.152C95.1505 211.152 93.002 209.1 93.002 204.432V196.976H97.0956Z" fill="#1D7FB9"/>
      <path d="M109.159 197.165C110.311 197.001 112.082 196.858 114.23 196.858C116.636 196.858 118.281 197.176 119.42 197.951C120.369 198.607 120.933 199.614 120.933 201.002C120.933 202.815 119.413 204.014 118.328 204.36V204.439C119.316 204.835 119.862 205.735 120.265 206.916C120.747 208.34 121.251 210.378 121.536 210.913H117.367C117.132 210.503 116.739 209.486 116.261 207.719C115.822 206.045 115.247 205.71 113.92 205.71H113.213V210.913H109.162V197.165H109.159ZM113.21 202.99H114.366C115.943 202.99 116.875 202.344 116.875 201.291C116.875 200.238 116.079 199.682 114.701 199.674C113.845 199.674 113.424 199.714 113.21 199.756V202.986V202.99Z" fill="#1D7FB9"/>
      <path d="M138.032 203.839C138.032 208.161 134.991 211.152 130.084 211.152C125.177 211.152 122.503 208.008 122.503 204.05C122.503 199.871 125.594 196.733 130.341 196.733C135.088 196.733 138.029 199.885 138.029 203.836L138.032 203.839ZM126.85 203.964C126.85 206.452 128.185 208.161 130.295 208.161C132.404 208.161 133.685 206.395 133.685 203.95C133.685 201.505 132.379 199.731 130.27 199.731C128.16 199.731 126.847 201.498 126.847 203.964H126.85Z" fill="#1D7FB9"/>
      <path d="M331.202 230.236H201.15V145.35C201.15 145.35 224.049 114.246 237.09 114.246C249.461 114.246 271.178 150.115 271.178 150.115C271.178 150.115 292.946 126.181 302.875 126.181C312.804 126.181 331.202 155.747 331.202 155.747V230.236Z" fill="#90C2E6"/>
      <path d="M219.099 224.618H205.184V173.688C205.184 169.844 208.299 166.729 212.143 166.729C215.987 166.729 219.103 169.844 219.103 173.688V224.618H219.099Z" fill="#9FC9EC"/>
      <path d="M234.817 224.618H220.901V173.688C220.901 169.844 224.017 166.729 227.861 166.729C231.705 166.729 234.821 169.844 234.821 173.688V224.618H234.817Z" fill="#9FC9EC"/>
      <path d="M250.531 224.618H236.616V173.688C236.616 169.844 239.731 166.729 243.575 166.729C247.419 166.729 250.535 169.844 250.535 173.688V224.618H250.531Z" fill="#9FC9EC"/>
      <path d="M266.246 224.618H252.33V173.688C252.33 169.844 255.446 166.729 259.29 166.729C263.134 166.729 266.249 169.844 266.249 173.688V224.618H266.246Z" fill="#9FC9EC"/>
      <path d="M275 166.725C278.841 166.725 281.96 169.844 281.96 173.685V224.615H268.044V173.685C268.044 169.844 271.164 166.725 275.004 166.725H275Z" fill="#9FC9EC"/>
      <path d="M290.715 166.725C294.556 166.725 297.675 169.844 297.675 173.685V224.615H283.759V173.685C283.759 169.844 286.879 166.725 290.719 166.725H290.715Z" fill="#9FC9EC"/>
      <path d="M306.433 166.725C310.273 166.725 313.393 169.844 313.393 173.685V224.615H299.477V173.685C299.477 169.844 302.596 166.725 306.437 166.725H306.433Z" fill="#9FC9EC"/>
      <path d="M322.147 166.725C325.988 166.725 329.107 169.844 329.107 173.685V224.615H315.191V173.685C315.191 169.844 318.311 166.725 322.151 166.725H322.147Z" fill="#9FC9EC"/>
      <path d="M245.556 102.572L248.269 108.072L254.336 108.953L249.946 113.232L250.981 119.275L245.556 116.42L240.128 119.275L241.166 113.232L236.776 108.953L242.844 108.072L245.556 102.572Z" fill="#8EC3E6"/>
      <path d="M190.201 100.848L192.917 106.344L198.984 107.226L194.594 111.505L195.629 117.547L190.201 114.696L184.776 117.547L185.811 111.505L181.421 107.226L187.488 106.344L190.201 100.848Z" fill="#8EC3E6"/>
      <path d="M217.118 94.9663L219.831 100.463L225.898 101.344L221.508 105.623L222.547 111.666L217.118 108.814L211.693 111.666L212.728 105.623L208.338 101.344L214.406 100.463L217.118 94.9663Z" fill="#8EC3E6"/>
      <path d="M169.964 120.578L172.676 126.074L178.744 126.955L174.354 131.235L175.389 137.277L169.964 134.425L164.536 137.277L165.571 131.235L161.181 126.955L167.248 126.074L169.964 120.578Z" fill="#8EC3E6"/>
      <path d="M163.722 147.67L166.438 153.17L172.506 154.051L168.116 158.331L169.151 164.373L163.722 161.521L158.297 164.373L159.332 158.331L154.942 154.051L161.01 153.17L163.722 147.67Z" fill="#8EC3E6"/>
      <path d="M170.853 176.907L173.569 182.404L179.633 183.285L175.243 187.565L176.282 193.607L170.853 190.755L165.428 193.607L166.463 187.565L162.073 183.285L168.141 182.404L170.853 176.907Z" fill="#8EC3E6"/>
      <path d="M190.201 194.731L192.917 200.231L198.984 201.113L194.594 205.392L195.629 211.434L190.201 208.579L184.776 211.434L185.811 205.392L181.421 201.113L187.488 200.231L190.201 194.731Z" fill="#8EC3E6"/>
      <path d="M217.118 202.219L219.831 207.715L225.898 208.597L221.508 212.876L222.547 218.918L217.118 216.067L211.693 218.918L212.728 212.876L208.338 208.597L214.406 207.715L217.118 202.219Z" fill="#8EC3E6"/>
      <path d="M239.414 136.749V136.181C239.414 126.87 244.553 118.879 257.591 110.292C266.781 104.221 269.355 102.276 269.355 97.0042C269.355 92.2609 266.685 88.6312 260.214 88.6312C253.744 88.6312 250.913 92.1646 249.907 98.0285H239.518C240.41 88.0423 247.534 80.4832 260.361 80.4832C274.041 80.4832 280.169 88.3279 280.169 96.8864C280.169 105.445 276.214 108.928 265.3 115.974C257.77 120.874 253.601 124.664 252.234 128.222H282.464L281.065 136.749H239.414Z" fill="#217FBA"/>
      <path d="M334.236 108.718C334.236 123.911 328.732 137.812 311.883 137.812C295.034 137.812 289.541 124.471 289.541 109.146C289.541 93.8207 295.922 80.4761 312.108 80.4761C328.294 80.4761 334.236 93.5922 334.236 108.714V108.718ZM300.626 109.06C300.626 119.025 302.675 129.5 311.994 129.5C321.312 129.5 323.161 119.693 323.161 108.768C323.161 98.7067 321.227 88.7669 312.151 88.7669C303.075 88.7669 300.626 97.3968 300.626 109.057V109.06Z" fill="#217FBA"/>
    </g>
    <g filter="url(#filter2_d_401_1003)">
      <path d="M382.658 46H32V222H382.658V46Z" fill="#F4EFDD"/>
      <path d="M116.897 222L244.526 222L244.526 46L116.897 46L116.897 222Z" fill="#FDDDB9"/>
      <path d="M325.302 46H244.526V222H325.302V46Z" fill="#F0BB98"/>
      <path d="M325.302 101.643L293.539 84.6687L267.548 98.9905L262.509 95.2754L231.256 110.807V210.611H325.302V101.643Z" fill="#E7AF88"/>
      <path d="M116.897 65.7239H79.3662V91.18H116.897V65.7239Z" fill="#197CC1"/>
      <path d="M189.235 81.0471L191.963 86.5748L198.065 87.4614L193.65 91.7651L194.691 97.842L189.235 94.9741L183.775 97.842L184.82 91.7651L180.405 87.4614L186.507 86.5748L189.235 81.0471Z" fill="#E8AD88"/>
      <path d="M216.306 75.1318L219.034 80.6595L225.136 81.5461L220.721 85.8498L221.762 91.9267L216.306 89.0588L210.846 91.9267L211.891 85.8498L207.472 81.5461L213.574 80.6595L216.306 75.1318Z" fill="#E8AD88"/>
      <path d="M245.66 81.0471L248.388 86.5748L254.49 87.4614L250.075 91.7651L251.116 97.842L245.66 94.9741L240.201 97.842L241.245 91.7651L236.83 87.4614L242.932 86.5748L245.66 81.0471Z" fill="#E8AD88"/>
      <path d="M168.879 100.889L171.607 106.417L177.709 107.304L173.294 111.607L174.335 117.684L168.879 114.816L163.419 117.684L164.464 111.607L160.049 107.304L166.151 106.417L168.879 100.889Z" fill="#E8AD88"/>
      <path d="M162.604 128.14L165.332 133.668L171.434 134.555L167.019 138.858L168.06 144.935L162.604 142.067L157.145 144.935L158.189 138.858L153.774 134.555L159.876 133.668L162.604 128.14Z" fill="#E8AD88"/>
      <path d="M169.776 157.541L172.504 163.069L178.606 163.956L174.191 168.259L175.232 174.336L169.776 171.468L164.317 174.336L165.361 168.259L160.943 163.956L167.045 163.069L169.776 157.541Z" fill="#E8AD88"/>
      <path d="M216.306 182.997L219.034 188.525L225.136 189.412L220.721 193.715L221.762 199.792L216.306 196.924L210.846 199.792L211.891 193.715L207.472 189.412L213.574 188.525L216.306 182.997Z" fill="#E8AD88"/>
      <path d="M189.235 175.467L191.963 180.998L198.065 181.885L193.65 186.188L194.691 192.265L189.235 189.394L183.775 192.265L184.82 186.188L180.405 181.885L186.507 180.998L189.235 175.467Z" fill="#E8AD88"/>
      <path d="M93.1171 184.957H87.3202V187.427H93.7955V190.549H83.2031V176.533H93.4725V179.656H87.3202V181.845H93.1171V184.957Z" fill="#BD552C"/>
      <path d="M100.174 176.533V184.282C100.174 186.45 101.006 187.778 102.783 187.778C104.56 187.778 105.393 186.558 105.393 184.282V176.533H109.51V184.128C109.51 188.604 107.033 190.79 102.625 190.79C98.2175 190.79 96.0566 188.726 96.0566 184.031V176.533H100.174Z" fill="#BD552C"/>
      <path d="M112.306 176.723C113.466 176.558 115.246 176.414 117.407 176.414C119.826 176.414 121.481 176.734 122.626 177.513C123.581 178.173 124.148 179.185 124.148 180.582C124.148 182.405 122.619 183.611 121.527 183.959V184.038C122.522 184.437 123.071 185.341 123.476 186.529C123.961 187.961 124.467 190.011 124.754 190.553H120.562C120.325 190.14 119.93 189.117 119.449 187.341C119.008 185.657 118.43 185.32 117.094 185.32H116.384V190.553H112.31V176.727L112.306 176.723ZM116.38 182.581H117.543C119.13 182.581 120.066 181.931 120.066 180.872C120.066 179.813 119.266 179.254 117.881 179.246C117.019 179.246 116.596 179.286 116.38 179.329V182.577V182.581Z" fill="#BD552C"/>
      <path d="M141.345 183.435C141.345 187.782 138.286 190.79 133.351 190.79C128.416 190.79 125.727 187.628 125.727 183.647C125.727 179.444 128.835 176.289 133.609 176.289C138.383 176.289 141.341 179.462 141.341 183.432L141.345 183.435ZM130.099 183.561C130.099 186.063 131.441 187.779 133.563 187.779C135.684 187.779 136.973 186.002 136.973 183.543C136.973 181.084 135.659 179.3 133.538 179.3C131.416 179.3 130.095 181.077 130.095 183.557L130.099 183.561Z" fill="#BD552C"/>
      <path d="M365.199 166.73C365.199 169.731 364.219 172.495 362.56 174.738V177.678H359.581C357.367 179.271 354.642 180.215 351.702 180.215C348.763 180.215 346.038 179.271 343.831 177.678H340.651V174.458C339.118 172.272 338.213 169.612 338.213 166.73C338.213 163.848 339.114 161.184 340.651 158.998V155.779H343.831C346.042 154.185 348.763 153.241 351.702 153.241C354.642 153.241 357.367 154.185 359.581 155.779H362.56V158.718C364.215 160.958 365.199 163.729 365.199 166.73Z" fill="#177BC0"/>
      <path d="M126.711 76.5532L213.618 76.5532V65.8675L126.711 65.8675V76.5532Z" fill="#E6AF89"/>
      <path d="M150.724 210.614H231.252V204.451H150.724V210.614Z" fill="#E6AF88"/>
      <path d="M325.306 138.399H370.479V58.0031H325.306V138.399Z" fill="#F9D4B1"/>
      <path d="M325.306 211.031H370.479V188.823H325.306V211.031Z" fill="#F9D4B1"/>
      <path d="M306.637 121.198H289.063V168.837H306.637V121.198Z" fill="#F0BB97"/>
      <path d="M260.079 121.198C268.037 121.198 274.498 127.659 274.498 135.617V174.975H245.657V135.617C245.657 127.659 252.118 121.198 260.075 121.198H260.079Z" fill="#F0BB97"/>
      <path d="M54.9688 185.743H45.0189C44.8574 187.559 44.4913 190.618 44.3262 191.899C45.1876 191.059 46.6055 190.391 48.9099 190.391C53.9781 190.391 56.5159 194.211 56.5159 199.196C56.5159 204.907 53.9422 209.329 47.2803 209.329C42.0613 209.329 38.9887 206.501 38.6729 201.634H43.7483C44.0534 203.658 44.9831 205.259 47.4059 205.259C50.3815 205.259 51.2215 202.954 51.2215 199.699C51.2215 196.443 50.2451 194.505 47.4095 194.505C45.1625 194.505 44.1647 195.733 43.5832 197.409L39.1036 196.723C39.6707 193.403 40.5896 184.918 40.8839 181.393H55.5539L54.9724 185.743H54.9688Z" fill="#EAD4BA"/>
      <path d="M77.8117 194.67C77.8117 203.701 75.6401 209.333 68.8453 209.333C62.0505 209.333 59.8682 203.658 59.8682 194.814C59.8682 185.969 62.9335 181.02 68.9566 181.02C74.9796 181.02 77.8081 185.582 77.8081 194.67H77.8117ZM65.1123 194.659C65.1123 201.407 65.8015 205.237 68.8668 205.237C71.9322 205.237 72.5747 201.382 72.5747 194.688C72.5747 187.994 71.8173 185.126 68.9135 185.126C66.0097 185.126 65.1159 188.055 65.1159 194.659H65.1123Z" fill="#EAD4BA"/>
      <path d="M289.207 69.3025H269.081C268.755 72.9745 268.012 79.159 267.678 81.7506C269.419 80.0492 272.287 78.7032 276.949 78.7032C287.204 78.7032 292.337 86.4276 292.337 96.5139C292.337 108.068 287.133 117.009 273.654 117.009C263.098 117.009 256.881 111.292 256.246 101.442H266.511C267.129 105.538 269.01 108.779 273.913 108.779C279.932 108.779 281.63 104.116 281.63 97.5297C281.63 90.9431 279.652 87.0198 273.92 87.0198C269.372 87.0198 267.358 89.5001 266.178 92.8921L257.111 91.5102C258.259 84.7944 260.119 67.6262 260.714 60.5012H290.385L289.207 69.3061V69.3025Z" fill="#C05C34"/>
      <path d="M335.41 87.361C335.41 105.628 331.02 117.024 317.276 117.024C303.532 117.024 299.117 105.545 299.117 87.6553C299.117 69.7656 305.316 59.7476 317.506 59.7476C329.695 59.7476 335.41 68.9795 335.41 87.361ZM309.72 87.343C309.72 100.997 311.117 108.74 317.312 108.74C323.507 108.74 324.81 100.943 324.81 87.4004C324.81 73.8576 323.278 68.0571 317.402 68.0571C311.526 68.0571 309.717 73.9832 309.717 87.3394L309.72 87.343Z" fill="#C05C34"/>
      <path d="M150.727 197.628H80.9561V210.611H150.727V197.628Z" fill="#E8AD88"/>
    </g>
  </g>
  <defs>
    <filter id="filter0_d_401_1003" x="28" y="86" width="359.293" height="184" filterUnits="userSpaceOnUse" color-interpolation-filters="sRGB">
      <feFlood flood-opacity="0" result="BackgroundImageFix"/>
      <feColorMatrix in="SourceAlpha" type="matrix" values="0 0 0 0 0 0 0 0 0 0 0 0 0 0 0 0 0 0 127 0" result="hardAlpha"/>
      <feOffset dy="4"/>
      <feGaussianBlur stdDeviation="2"/>
      <feComposite in2="hardAlpha" operator="out"/>
      <feColorMatrix type="matrix" values="0 0 0 0 0 0 0 0 0 0 0 0 0 0 0 0 0 0 0.25 0"/>
      <feBlend mode="normal" in2="BackgroundImageFix" result="effect1_dropShadow_401_1003"/>
      <feBlend mode="normal" in="SourceGraphic" in2="effect1_dropShadow_401_1003" result="shape"/>
    </filter>
    <filter id="filter1_d_401_1003" x="28" y="66" width="357.297" height="183" filterUnits="userSpaceOnUse" color-interpolation-filters="sRGB">
      <feFlood flood-opacity="0" result="BackgroundImageFix"/>
      <feColorMatrix in="SourceAlpha" type="matrix" values="0 0 0 0 0 0 0 0 0 0 0 0 0 0 0 0 0 0 127 0" result="hardAlpha"/>
      <feOffset dy="4"/>
      <feGaussianBlur stdDeviation="2"/>
      <feComposite in2="hardAlpha" operator="out"/>
      <feColorMatrix type="matrix" values="0 0 0 0 0 0 0 0 0 0 0 0 0 0 0 0 0 0 0.25 0"/>
      <feBlend mode="normal" in2="BackgroundImageFix" result="effect1_dropShadow_401_1003"/>
      <feBlend mode="normal" in="SourceGraphic" in2="effect1_dropShadow_401_1003" result="shape"/>
    </filter>
    <filter id="filter2_d_401_1003" x="28" y="46" width="358.658" height="184" filterUnits="userSpaceOnUse" color-interpolation-filters="sRGB">
      <feFlood flood-opacity="0" result="BackgroundImageFix"/>
      <feColorMatrix in="SourceAlpha" type="matrix" values="0 0 0 0 0 0 0 0 0 0 0 0 0 0 0 0 0 0 127 0" result="hardAlpha"/>
      <feOffset dy="4"/>
      <feGaussianBlur stdDeviation="2"/>
      <feComposite in2="hardAlpha" operator="out"/>
      <feColorMatrix type="matrix" values="0 0 0 0 0 0 0 0 0 0 0 0 0 0 0 0 0 0 0.25 0"/>
      <feBlend mode="normal" in2="BackgroundImageFix" result="effect1_dropShadow_401_1003"/>
      <feBlend mode="normal" in="SourceGraphic" in2="effect1_dropShadow_401_1003" result="shape"/>
    </filter>
    <clipPath id="clip0_401_1003">
      <rect width="350" height="264" fill="white" transform="translate(32 12)"/>
    </clipPath>
    <clipPath id="clip1_401_1003">
      <rect width="351.293" height="176" fill="white" transform="translate(32 86)"/>
    </clipPath>
    <clipPath id="clip2_401_1003">
      <rect width="349.297" height="175" fill="white" transform="translate(32 66)"/>
    </clipPath>
  </defs>
</svg>
